<?xml version="1.0" encoding="UTF-8"?>
<!DOCTYPE svg PUBLIC "-//W3C//DTD SVG 1.0//EN" "http://www.w3.org/TR/2001/REC-SVG-20010904/DTD/svg10.dtd">
<!-- Creator: CorelDRAW X7 -->
<svg xmlns="http://www.w3.org/2000/svg" xml:space="preserve" width="1999px" height="791px" version="1.0" style="shape-rendering:geometricPrecision; text-rendering:geometricPrecision; image-rendering:optimizeQuality; fill-rule:evenodd; clip-rule:evenodd"
viewBox="0 0 558 221"
 xmlns:xlink="http://www.w3.org/1999/xlink">
 <defs>
  <style type="text/css">
   <![CDATA[
    .fil0 {fill:#FEFEFE;fill-rule:nonzero}
    .fil1 {fill:#45B653;fill-rule:nonzero}
   ]]>
  </style>
 </defs>
 <g id="Layer_x0020_1">
  <metadata id="CorelCorpID_0Corel-Layer"/>
  <g id="_1787453182272">
   <polygon class="fil0" points="0,0 48,0 124,97 124,0 174,0 174,184 129,184 50,83 50,184 0,184 "/>
   <path class="fil0" d="M403 0l79 0c11,0 22,1 31,4 10,3 18,7 24,13 7,6 12,12 16,20 3,8 5,18 5,28l0 0c0,11 -2,21 -6,29 -4,8 -9,15 -16,21 -7,5 -15,10 -25,12 -10,3 -21,5 -32,5l-25 0 0 52 -51 0 0 -184zm75 92l0 0c9,0 16,-3 21,-7 6,-4 8,-10 8,-17l0 -1c0,-8 -2,-14 -8,-18 -5,-4 -12,-6 -21,-6l-24 0 0 49 24 0z"/>
   <polygon class="fil0" points="190,26 244,26 288,81 332,26 386,26 386,210 335,210 335,104 288,160 241,105 241,210 190,210 "/>
   <polygon class="fil1" points="334,0 242,0 288,58 "/>
   <path class="fil1" d="M310 199c-1,-3 -2,-7 -4,-10 0,0 0,0 0,0 -3,-3 -8,-9 -8,-9l-10 -11c0,0 0,-1 0,-1 0,1 0,1 0,1l-10 11c0,0 -5,6 -8,9 0,0 0,0 0,0 -2,3 -3,7 -4,10 0,1 0,1 0,1 0,12 11,21 22,21 11,0 22,-9 22,-21 0,0 0,0 0,-1z"/>
  </g>
 </g>
</svg>
